<?xml version="1.0" standalone="no"?><!DOCTYPE svg PUBLIC "-//W3C//DTD SVG 1.1//EN" "http://www.w3.org/Graphics/SVG/1.1/DTD/svg11.dtd"><svg t="1710511684021" class="icon" viewBox="0 0 1024 1024" version="1.1" xmlns="http://www.w3.org/2000/svg" p-id="2379" xmlns:xlink="http://www.w3.org/1999/xlink" width="200" height="200"><path d="M350.3616 632.5248a133.888 41.8304 0 1 0 267.776 0 133.888 41.8304 0 1 0-267.776 0Z" fill="#F3FAFF" p-id="2380"></path><path d="M302.9504 252.3648l181.2992 48.5376v340.0192L302.9504 252.3648z" fill="#3175F5" p-id="2381"></path><path d="M665.6 252.3648l-181.3504 48.5376v340.0192L665.6 252.3648z" fill="#3ABCEF" p-id="2382"></path><path d="M484.2496 300.9024L665.6 252.3648H302.9504l181.2992 48.5376z" fill="#67C7F8" p-id="2383"></path><path d="M102.4 153.6h51.2v716.8H102.4zM819.2 102.4v51.2H102.4V102.4z" fill="#F8F8F8" p-id="2384"></path><path d="M596.8384 819.2H102.4v51.2h589.568c-36.608-10.24-77.568-30.72-95.1296-51.2zM870.4 507.5968V102.4h-51.2v371.5584a234.752 234.752 0 0 1 51.2 33.6384z" fill="#F8F8F8" p-id="2385"></path><path d="M849.6128 909.1072l-44.3904-76.8a19.456 19.456 0 0 1 7.1168-26.5728l42.5984-24.576 54.1696 93.7472a19.5584 19.5584 0 0 1-7.1168 26.5728l-25.6 14.848a19.456 19.456 0 0 1-26.7776-7.2192z" fill="#3175F5" p-id="2386"></path><path d="M744.96 542.72a125.44 125.44 0 1 1-125.44 125.44 125.5936 125.5936 0 0 1 125.44-125.44m0-51.2a176.64 176.64 0 1 0 176.64 176.64A176.64 176.64 0 0 0 744.96 491.52z" fill="#67C7F8" p-id="2387"></path></svg>